<svg xmlns="http://www.w3.org/2000/svg" viewBox="0 0 91.83 91.82"><defs><style>.cls-1{fill:#fff;}</style></defs><title>Logo_white</title><g id="Layer_2" data-name="Layer 2"><g id="Layer_1-2" data-name="Layer 1"><path class="cls-1" d="M0,45.9C0,33.74,0,21.58,0,9.42.05,2.46,2.43,0,9.29,0Q46,0,82.76,0c6.49,0,9,2.55,9,9.13q0,36.74,0,73.47c0,6.58-2.55,9.16-9,9.17q-36.73.06-73.47,0C2.48,91.79,0,89.28,0,82.39,0,70.23,0,58.06,0,45.9ZM70,71.38c4.88-2,6.8-6.5,7.63-11.17,1-5.86-1.79-10.48-5.93-14.28,8.83-9.45,8.14-19.86-1.59-25.38A10,10,0,0,0,65,18.89c-10.32,0-20.64-.06-31-.06a4.8,4.8,0,0,0-4.52,2.47C25,28.86,20.34,36.35,15.69,43.82c-1.08,1.72-1.2,2.87.81,4,4.36,2.41,8.64,5,12.93,7.49.92.54,1.8.93,2.77.3,5.11-3.27,10.16-6,15.63-9.48C42.43,37.28,37.22,28.74,32,20.21c7.14,4,33.13,20.92,39.16,25.84C58.08,54.83,45.54,63.67,32.49,71.72,34.72,68,44.55,53.81,46.91,50.52c-4.3,2.15-8.4,5-12.56,7.26-2.65,1.42-4.37,1.41-6.72-.1-3.82-2.46-7.83-4.62-11.76-6.91,3.87,6.65,8.32,12.58,12.47,18.7a7.48,7.48,0,0,0,7,3.65c9-.13,17.95,0,26.93-.1A25.22,25.22,0,0,0,70,71.38Z"/></g></g></svg>