<svg xmlns="http://www.w3.org/2000/svg" xmlns:xlink="http://www.w3.org/1999/xlink" viewBox="0 0 92.7 85.16"><defs><style>.cls-1{fill:url(#linear-gradient);}</style><linearGradient id="linear-gradient" x1="-13.01" y1="71.5" x2="97.71" y2="16.57" gradientUnits="userSpaceOnUse"><stop offset="0.3" stop-color="#c061f5"/><stop offset="0.41" stop-color="#c166f3"/><stop offset="0.56" stop-color="#c375ee"/><stop offset="0.72" stop-color="#c68fe5"/><stop offset="0.88" stop-color="#cab1d8"/><stop offset="1" stop-color="#cecece"/></linearGradient></defs><title>wallet</title><g id="Layer_2" data-name="Layer 2"><g id="Layer_1-2" data-name="Layer 1"><path class="cls-1" d="M89.9,19.39H87.2a2.8,2.8,0,0,1-2.8-2.8V3A2.79,2.79,0,0,0,81.63.15C68.17.06,10.16,0,10.16,0A10.16,10.16,0,0,0,0,10.16v62a13,13,0,0,0,13,13H79.74a13,13,0,0,0,13-13v-50A2.8,2.8,0,0,0,89.9,19.39Zm-77.37.86a2.8,2.8,0,0,1-2.8-2.8V10.17a2.8,2.8,0,0,1,2.8-2.8H68.72a2.8,2.8,0,0,1,2.8,2.8v7.28a2.8,2.8,0,0,1-2.8,2.8Zm65,38.39a2.8,2.8,0,0,1-2.8,2.81H67.46a2.8,2.8,0,0,1-2.8-2.81V46.22a2.8,2.8,0,0,1,2.8-2.8h7.27a2.8,2.8,0,0,1,2.8,2.8Z"/></g></g></svg>